<svg xmlns="http://www.w3.org/2000/svg" viewBox="0 0 1263.17 479.03"><defs><style>.cls-1{fill:none;}.cls-2{fill:#fff;}</style></defs><g id="Layer_2" data-name="Layer 2"><g id="Layer_1-2" data-name="Layer 1"><path d="M197.22,0,161.67,288.65h-37.6l2.05-17.26q-14,12.47-24.26,16.92-10.1,4.1-25,4.1-33.83,0-55.37-22.39Q0,247.46,0,211.91,0,174,23.58,148.85t59.31-25.12q18.28,0,30.76,6.32,13,6.49,27.17,22L159.45,0ZM135,201.15q0-20.51-12.65-33.16T89.21,155.35q-22.21,0-36.74,16.57T37.94,213.79q0,21.38,12.48,34.35T83.57,261q21.53,0,36.4-17.43Q135,226.45,135,201.15Z"/><path d="M395.12,127.66l-19.83,161H337.52l2.23-17.43q-24.27,21.18-50.25,21.19-32,0-52.12-21.71t-20.17-56.22q0-39.82,23.07-65.29,23.41-25.45,60-25.46,17.26,0,29.39,5.64Q342,135,354.79,148.85l2.56-21.19Zm-46,75.88q0-21.36-12.31-34.69-12.3-13.5-31.79-13.5-21.18,0-35.54,16.57-14.35,16.76-14.36,41,0,21.19,12,34.69t30.77,13.5q20.85,0,36.06-16.92A59.51,59.51,0,0,0,349.15,203.54Z"/><path d="M484,162.7l-15.55,126H430.66L446.22,162.7H424.85l4.28-35h21.36L459.72,53h37.77l-9.23,74.68h34.86l-4.27,35Z"/><path d="M714.87,127.66,695,288.65H657.28l2.22-17.43q-24.27,21.18-50.25,21.19-31.95,0-52.12-21.71T537,214.48q0-39.82,23.07-65.29,23.41-25.45,60-25.46,17.26,0,29.39,5.64,12.32,5.64,25.13,19.48l2.56-21.19Zm-46,75.88q0-21.36-12.31-34.69-12.3-13.5-31.79-13.5-21.18,0-35.54,16.57-14.35,16.76-14.36,41,0,21.19,12,34.69t30.76,13.5q20.85,0,36.06-16.92A59.51,59.51,0,0,0,668.9,203.54Z"/><polygon points="938.99 190.38 950.33 190.38 938.29 288.65 900.52 288.65 912.62 190.38 901.28 190.38 924.73 0 962.33 0 938.99 190.38"/><polygon points="1029.46 190.38 1046.46 190.38 1034.36 288.65 996.59 288.65 1008.69 190.38 991.69 190.38 999.41 127.66 1037.18 127.66 1029.46 190.38"/><path d="M1014.11,65.11a21.3,21.3,0,0,1-6-14.87,20.13,20.13,0,0,1,20-20.16,19.63,19.63,0,0,1,14.53,6.32A19.81,19.81,0,0,1,1049,51.1a19.35,19.35,0,0,1-6,14.18,19.57,19.57,0,0,1-14.36,6A19.86,19.86,0,0,1,1014.11,65.11Z"/><path class="cls-1" d="M1212.58,190.38h-91.93A56.82,56.82,0,0,1,1132,172.09q15.38-16.74,38.28-16.74,19.14,0,31.45,13.84A46.59,46.59,0,0,1,1212.58,190.38Z"/><path d="M1262.43,190.38h-11.34q-3.24-26-20.62-44.26-21.37-22.4-53.49-22.39-27,0-51.44,20.85l2-16.92h-37.77l-7.71,62.72h11.34l-23.4,190.38L1058,479h37.77l12.1-98.27L1122,265.58q13.85,15.21,26.14,21,11.8,5.81,30.25,5.81,36.06,0,60.33-25.81,24.43-26,24.44-63.92A100.35,100.35,0,0,0,1262.43,190.38Z"/><path class="cls-2" d="M1210.7,244.55Q1196,261,1174.47,261,1154,261,1141,247.63q-13-13-13-34.35a63.71,63.71,0,0,1,4-22.9h-11.34A56.82,56.82,0,0,1,1132,172.09q15.38-16.74,38.28-16.74,19.14,0,31.45,13.84a46.59,46.59,0,0,1,10.82,21.19h11.34a62.29,62.29,0,0,1,1.48,13.84Q1225.4,227.82,1210.7,244.55Z"/><path d="M867.2,243.36q0,22.9-15.9,36.74-16.23,13.68-42.21,13.67-35.37,0-58.62-31.95l24.78-17.27q15.21,18.3,32.47,18.29,9.75,0,15.64-5.13a16.83,16.83,0,0,0,5.9-13.33,14.9,14.9,0,0,0-5-11.62,70.83,70.83,0,0,0-8.37-6.15q-6-3.93-16.24-9.4-18.12-10.08-25.12-19.65a37,37,0,0,1-3.85-7.18H759.38A46,46,0,0,1,756.22,173q0-21.87,16.07-36.23t40.84-14.36q27.35,0,50.42,23.07L842.19,166.8q-15-13.5-27.86-13.51-8.72,0-14.44,4.88a15.18,15.18,0,0,0-5.73,12A16,16,0,0,0,799,182q3.27,3.39,11.41,8.37H821.7q3.76,2.31,8.58,5,21.71,12.14,29.05,22.21Q867.19,227.46,867.2,243.36Z"/></g></g></svg>