<svg id="Layer_1" data-name="Layer 1" xmlns="http://www.w3.org/2000/svg" xmlns:xlink="http://www.w3.org/1999/xlink" viewBox="0 0 15.17 17.38"><defs><style>.cls-1{fill:url(#Degradado_sin_nombre_15);}.cls-2{fill:url(#Degradado_sin_nombre_23);}.cls-3{fill:url(#Degradado_sin_nombre_24);}.cls-4{fill:#b27fb6;}.cls-5{fill:#71bab9;}.cls-6{fill:url(#Degradado_sin_nombre_22);}.cls-7{fill:#fff;}.cls-8{fill:#211816;}.cls-9{fill:url(#Degradado_sin_nombre_22-2);}.cls-10{fill:#ae81b8;}.cls-11{fill:#dfc6e1;}.cls-12{fill:url(#Degradado_sin_nombre_22-3);}</style><linearGradient id="Degradado_sin_nombre_15" x1="13.88" y1="19.7" x2="9.99" y2="19.7" gradientUnits="userSpaceOnUse"><stop offset="0" stop-color="#009fe3"/><stop offset="1" stop-color="#a7baa3"/></linearGradient><linearGradient id="Degradado_sin_nombre_23" x1="5.09" y1="16.28" x2="18.98" y2="16.28" gradientUnits="userSpaceOnUse"><stop offset="0" stop-color="#009fe3"/><stop offset="0" stop-color="#029fe2"/><stop offset="0.12" stop-color="#2ea6d2"/><stop offset="0.25" stop-color="#53acc3"/><stop offset="0.37" stop-color="#71b1b8"/><stop offset="0.51" stop-color="#89b5ae"/><stop offset="0.65" stop-color="#9ab8a8"/><stop offset="0.8" stop-color="#a4b9a4"/><stop offset="1" stop-color="#a7baa3"/></linearGradient><linearGradient id="Degradado_sin_nombre_24" x1="19.59" y1="10.62" x2="4.49" y2="10.62" gradientUnits="userSpaceOnUse"><stop offset="0" stop-color="#009fe3"/><stop offset="0.5" stop-color="#a7baa3"/></linearGradient><linearGradient id="Degradado_sin_nombre_22" x1="91.79" y1="43.73" x2="90.25" y2="43.73" gradientTransform="matrix(0.72, 0.69, -0.69, 0.72, -27.18, -85.32)" gradientUnits="userSpaceOnUse"><stop offset="0" stop-color="#1d1d1b"/><stop offset="1" stop-color="#aaaaa9"/></linearGradient><linearGradient id="Degradado_sin_nombre_22-2" x1="0.31" y1="-160.34" x2="-1.36" y2="-160.34" gradientTransform="matrix(0.62, -0.79, 0.79, 0.62, 142.09, 105.72)" xlink:href="#Degradado_sin_nombre_22"/><linearGradient id="Degradado_sin_nombre_22-3" x1="36.05" y1="-93.73" x2="34.93" y2="-93.73" gradientTransform="matrix(0.94, -0.75, 0.58, 0.6, 36.45, 94.62)" xlink:href="#Degradado_sin_nombre_22"/></defs><g id="_11" data-name="11"><path class="cls-1" d="M13.56,20l0-.1.28-.58h-.35a1.19,1.19,0,0,0-.39-.33,2.63,2.63,0,0,0-2.41,0,1.19,1.19,0,0,0-.39.33H10l.28.58.05.1h0a1,1,0,0,0,.41.38,2.63,2.63,0,0,0,2.41,0,1,1,0,0,0,.41-.38h0Z" transform="translate(-4.41 -3.31)"/><path class="cls-2" d="M19,12.34H5.09l5,7.13a1.34,1.34,0,0,0,.47.44,3.14,3.14,0,0,0,2.83,0,1.34,1.34,0,0,0,.47-.44Z" transform="translate(-4.41 -3.31)"/><path class="cls-3" d="M19.11,9.09h0L19,9l-.52-.77h-.19a6.93,6.93,0,0,0-.93-.66,11.82,11.82,0,0,0-10.68,0,6.46,6.46,0,0,0-.94.66H5.51l-.57.94h0c-1,1.54-.38,3.33,1.76,4.57a11.82,11.82,0,0,0,10.68,0C19.53,12.45,20.11,10.64,19.11,9.09Z" transform="translate(-4.41 -3.31)"/><ellipse class="cls-4" cx="7.6" cy="6.34" rx="6.97" ry="4.02"/><ellipse class="cls-5" cx="7.6" cy="6.3" rx="6.47" ry="3.74"/><path class="cls-4" d="M19.56,10.28a3.74,3.74,0,0,1-2.21,3.08,11.76,11.76,0,0,1-10.68,0,4,4,0,0,1-2.19-2.74A3.76,3.76,0,0,0,6.69,13.7a11.82,11.82,0,0,0,10.68,0C19,12.76,19.73,11.5,19.56,10.28Z" transform="translate(-4.41 -3.31)"/></g><g id="_7" data-name="7"><path class="cls-6" d="M11.67,12.71h0l.48-.49-.69-1.12L10.56,8A1.79,1.79,0,0,0,9.45,6.82L6.22,6,5,5.32l-.46.48,0,0h0a.69.69,0,0,0-.06.63l1.18,4.1a1.77,1.77,0,0,0,1.11,1.15l4.43,1.1A.47.47,0,0,0,11.67,12.71Z" transform="translate(-4.41 -3.31)"/><path class="cls-7" d="M11.68,12.3,7.25,11.21a1.81,1.81,0,0,1-1.11-1.16L5,6c-.16-.52.09-.86.55-.75L10,6.3a1.79,1.79,0,0,1,1.11,1.16l1.18,4.09C12.39,12.08,12.14,12.41,11.68,12.3Z" transform="translate(-4.41 -3.31)"/></g><path class="cls-5" d="M10.29,8.74a1.52,1.52,0,0,1,.14.77.77.77,0,0,1-.23.52.78.78,0,0,1-.37.2,2.79,2.79,0,0,1-.55,0h-1L7,7.22H8a2.9,2.9,0,0,1,.62.06,2.17,2.17,0,0,1,.49.18A2.57,2.57,0,0,1,9.8,8,2.89,2.89,0,0,1,10.29,8.74Zm-.75,0a1.82,1.82,0,0,0-.32-.52,1.39,1.39,0,0,0-.46-.33,1,1,0,0,0-.26-.08,1.73,1.73,0,0,0-.36,0H8l.81,1.92H9a1.58,1.58,0,0,0,.37,0,.56.56,0,0,0,.19-.09.43.43,0,0,0,.15-.34A1.12,1.12,0,0,0,9.54,8.74Z" transform="translate(-4.41 -3.31)"/><path class="cls-8" d="M10.05,8.75a1.47,1.47,0,0,1,.14.76A.79.79,0,0,1,10,10a.87.87,0,0,1-.37.19,2.74,2.74,0,0,1-.56.06h-1L6.76,7.22h1a3,3,0,0,1,.62.06,2.35,2.35,0,0,1,.49.17A2.57,2.57,0,0,1,9.55,8,2.61,2.61,0,0,1,10.05,8.75Zm-.75,0A1.85,1.85,0,0,0,9,8.23a1.28,1.28,0,0,0-.46-.34,1,1,0,0,0-.26-.08l-.36,0H7.72l.81,1.92h.18a1.64,1.64,0,0,0,.37,0,.48.48,0,0,0,.19-.09.4.4,0,0,0,.15-.33A1.31,1.31,0,0,0,9.3,8.74Z" transform="translate(-4.41 -3.31)"/><path class="cls-9" d="M18.29,3.76h0l-.46-.35L17,4.07l-2.56,1a1.48,1.48,0,0,0-.88,1l-.4,2.8L12.61,10l.45.36,0,0h0a.6.6,0,0,0,.53,0L17,9a1.53,1.53,0,0,0,.89-1l.55-3.83A.39.39,0,0,0,18.29,3.76Z" transform="translate(-4.41 -3.31)"/><path class="cls-7" d="M18,3.78,17.4,7.62a1.51,1.51,0,0,1-.89,1L13.15,10c-.43.17-.73,0-.67-.41L13,5.75a1.5,1.5,0,0,1,.88-1l3.36-1.35C17.7,3.2,18,3.38,18,3.78Z" transform="translate(-4.41 -3.31)"/><path class="cls-10" d="M16.79,6.48a1.53,1.53,0,0,1-.25.64,1.72,1.72,0,0,1-.46.47,1.65,1.65,0,0,1-.42.21,4.88,4.88,0,0,1-.53.11L14.25,8l.32-2.46.92-.12a1.89,1.89,0,0,1,.52,0,1,1,0,0,1,.36.09.79.79,0,0,1,.35.37A1,1,0,0,1,16.79,6.48Zm-.67.08a.73.73,0,0,0,0-.4.38.38,0,0,0-.25-.23.43.43,0,0,0-.19,0,1.31,1.31,0,0,0-.32,0l-.16,0L15,7.48l.16,0,.34-.06a.88.88,0,0,0,.22-.1A1.07,1.07,0,0,0,16,7,1.28,1.28,0,0,0,16.12,6.56Z" transform="translate(-4.41 -3.31)"/><path class="cls-11" d="M16.54,6.52a1.33,1.33,0,0,1-.25.63,1.63,1.63,0,0,1-.46.48,2,2,0,0,1-.42.2,2.47,2.47,0,0,1-.53.11L14,8.06l.32-2.47.92-.12a3.24,3.24,0,0,1,.52,0,1.18,1.18,0,0,1,.36.1.76.76,0,0,1,.35.36A1.09,1.09,0,0,1,16.54,6.52Zm-.67.08a.77.77,0,0,0,0-.41A.44.44,0,0,0,15.58,6l-.19,0-.31,0-.17,0-.2,1.54.16,0a1.51,1.51,0,0,0,.34-.07.62.62,0,0,0,.22-.1.86.86,0,0,0,.3-.3A1.3,1.3,0,0,0,15.87,6.6Z" transform="translate(-4.41 -3.31)"/><path class="cls-7" d="M18,3.78,17.4,7.62a1.51,1.51,0,0,1-.89,1L13.15,10c-.43.17-.73,0-.67-.41L13,5.75a1.5,1.5,0,0,1,.88-1l3.36-1.35C17.7,3.2,18,3.38,18,3.78Z" transform="translate(-4.41 -3.31)"/><path class="cls-5" d="M16.79,6.48a1.53,1.53,0,0,1-.25.64,1.72,1.72,0,0,1-.46.47,1.65,1.65,0,0,1-.42.21,4.88,4.88,0,0,1-.53.11L14.25,8l.32-2.46.92-.12a1.89,1.89,0,0,1,.52,0,1,1,0,0,1,.36.09.79.79,0,0,1,.35.37A1,1,0,0,1,16.79,6.48Zm-.67.08a.73.73,0,0,0,0-.4.38.38,0,0,0-.25-.23.43.43,0,0,0-.19,0,1.31,1.31,0,0,0-.32,0l-.16,0L15,7.48l.16,0,.34-.06a.88.88,0,0,0,.22-.1A1.07,1.07,0,0,0,16,7,1.28,1.28,0,0,0,16.12,6.56Z" transform="translate(-4.41 -3.31)"/><path class="cls-8" d="M16.54,6.52a1.33,1.33,0,0,1-.25.63,1.63,1.63,0,0,1-.46.48,2,2,0,0,1-.42.2,2.47,2.47,0,0,1-.53.11L14,8.06l.32-2.47.92-.12a3.24,3.24,0,0,1,.52,0,1.18,1.18,0,0,1,.36.1.76.76,0,0,1,.35.36A1.09,1.09,0,0,1,16.54,6.52Zm-.67.08a.77.77,0,0,0,0-.41A.44.44,0,0,0,15.58,6l-.19,0-.31,0-.17,0-.2,1.54.16,0a1.51,1.51,0,0,0,.34-.07.62.62,0,0,0,.22-.1.86.86,0,0,0,.3-.3A1.3,1.3,0,0,0,15.87,6.6Z" transform="translate(-4.41 -3.31)"/><path class="cls-12" d="M17.84,9.89h0l-.23-.23-.78.43-2,.65a1.68,1.68,0,0,0-.88.66l-1,1.79-.61.69.22.22,0,0h0c.07.06.2.06.37,0l2.68-.85a1.78,1.78,0,0,0,.88-.66l1.35-2.46C17.9,10,17.9,9.94,17.84,9.89Z" transform="translate(-4.41 -3.31)"/><path class="cls-7" d="M17.59,9.9l-1.35,2.46a1.7,1.7,0,0,1-.88.67l-2.67.85c-.35.11-.51,0-.37-.26l1.35-2.46a1.72,1.72,0,0,1,.88-.66l2.68-.86C17.57,9.53,17.73,9.65,17.59,9.9Z" transform="translate(-4.41 -3.31)"/><path class="cls-5" d="M16.1,11.63a1.42,1.42,0,0,1-.33.41,1.56,1.56,0,0,1-.44.3,1.58,1.58,0,0,1-.34.13,2.21,2.21,0,0,1-.4.07l-.64.08L14.8,11l.66-.07a1.59,1.59,0,0,1,.37,0,.64.64,0,0,1,.23.06.29.29,0,0,1,.15.24A.64.64,0,0,1,16.1,11.63Zm-.48,0a.48.48,0,0,0,.07-.26.18.18,0,0,0-.11-.15l-.13,0h-.22l-.12,0-.53,1,.12,0a1.18,1.18,0,0,0,.25,0l.18-.06a1.18,1.18,0,0,0,.28-.2A1,1,0,0,0,15.62,11.68Z" transform="translate(-4.41 -3.31)"/><path class="cls-8" d="M15.92,11.65a1.42,1.42,0,0,1-.33.41,1.72,1.72,0,0,1-.44.3,1.51,1.51,0,0,1-.35.14,3.08,3.08,0,0,1-.39.07l-.65.07.86-1.58.66-.08a2.43,2.43,0,0,1,.37,0,.53.53,0,0,1,.22.06.3.3,0,0,1,.16.24A.72.72,0,0,1,15.92,11.65Zm-.49.06a.45.45,0,0,0,.08-.26.16.16,0,0,0-.11-.15.28.28,0,0,0-.13,0,1.08,1.08,0,0,0-.22,0h-.12l-.53,1h.12l.25,0,.18-.06a1.15,1.15,0,0,0,.28-.19A1.05,1.05,0,0,0,15.43,11.71Z" transform="translate(-4.41 -3.31)"/></svg>