<svg id="Layer_1" data-name="Layer 1" xmlns="http://www.w3.org/2000/svg" xmlns:xlink="http://www.w3.org/1999/xlink" viewBox="0 0 548.06 270.29"><defs><style>.cls-1{fill:url(#Degradado_sin_nombre_15);}.cls-2{fill:url(#Degradado_sin_nombre_23);}.cls-3{fill:url(#Degradado_sin_nombre_24);}.cls-4{fill:#b27fb6;}.cls-5{fill:#71bab9;}.cls-6{fill:url(#Degradado_sin_nombre_22);}.cls-7{fill:#fff;}.cls-8{fill:#211816;}.cls-9{fill:url(#Degradado_sin_nombre_22-2);}.cls-10{fill:#ae81b8;}.cls-11{fill:#dfc6e1;}.cls-12{fill:url(#Degradado_sin_nombre_22-3);}.cls-13{fill:#1d1d1b;}</style><linearGradient id="Degradado_sin_nombre_15" x1="143.77" y1="213.21" x2="104.34" y2="213.21" gradientUnits="userSpaceOnUse"><stop offset="0" stop-color="#009fe3"/><stop offset="1" stop-color="#a7baa3"/></linearGradient><linearGradient id="Degradado_sin_nombre_23" x1="54.6" y1="178.49" x2="195.5" y2="178.49" gradientUnits="userSpaceOnUse"><stop offset="0" stop-color="#009fe3"/><stop offset="0" stop-color="#029fe2"/><stop offset="0.12" stop-color="#2ea6d2"/><stop offset="0.25" stop-color="#53acc3"/><stop offset="0.37" stop-color="#71b1b8"/><stop offset="0.51" stop-color="#89b5ae"/><stop offset="0.65" stop-color="#9ab8a8"/><stop offset="0.8" stop-color="#a4b9a4"/><stop offset="1" stop-color="#a7baa3"/></linearGradient><linearGradient id="Degradado_sin_nombre_24" x1="201.72" y1="121" x2="48.46" y2="121" gradientUnits="userSpaceOnUse"><stop offset="0" stop-color="#009fe3"/><stop offset="0.5" stop-color="#a7baa3"/></linearGradient><linearGradient id="Degradado_sin_nombre_22" x1="210.21" y1="277.01" x2="194.62" y2="277.01" gradientTransform="matrix(0.72, 0.69, -0.69, 0.72, 131.46, -232.4)" gradientUnits="userSpaceOnUse"><stop offset="0" stop-color="#1d1d1b"/><stop offset="1" stop-color="#aaaaa9"/></linearGradient><linearGradient id="Degradado_sin_nombre_22-2" x1="234.07" y1="-155.83" x2="217.11" y2="-155.83" gradientTransform="matrix(0.62, -0.79, 0.79, 0.62, 145.16, 358.87)" xlink:href="#Degradado_sin_nombre_22"/><linearGradient id="Degradado_sin_nombre_22-3" x1="231.51" y1="-60.91" x2="220.17" y2="-60.91" gradientTransform="matrix(0.94, -0.75, 0.58, 0.6, -20.07, 341.5)" xlink:href="#Degradado_sin_nombre_22"/></defs><g id="_11" data-name="11"><path class="cls-1" d="M140.5,216.4a6.81,6.81,0,0,0,.49-1l2.78-5.82h-3.56a11.55,11.55,0,0,0-3.89-3.43c-6.77-3.91-17.76-3.91-24.53,0a11.65,11.65,0,0,0-3.89,3.43h-3.56l2.78,5.82a6.5,6.5,0,0,0,.5,1h0a11.2,11.2,0,0,0,4.17,3.88c6.77,3.91,17.76,3.91,24.53,0a11.2,11.2,0,0,0,4.17-3.88h0Z"/><path class="cls-2" d="M195.5,138.48l-140.9-.11,50.34,72.4a13.14,13.14,0,0,0,4.8,4.41c7.91,4.56,20.73,4.56,28.63,0a13.14,13.14,0,0,0,4.8-4.41Z"/><path class="cls-3" d="M196.88,105.5h0v0c-.28-.43-.56-.85-.86-1.27l-5.3-7.81H188.8a62.25,62.25,0,0,0-9.53-6.69c-29.92-17.28-78.44-17.28-108.37,0a62.64,62.64,0,0,0-9.52,6.69H58.89L53,105.9h0c-9.82,15.64-3.87,33.84,17.85,46.38,29.93,17.28,78.45,17.28,108.37,0C201.18,139.63,207.05,121.23,196.88,105.5Z"/><ellipse class="cls-4" cx="124.8" cy="111.2" rx="70.7" ry="40.82"/><ellipse class="cls-5" cx="124.8" cy="110.75" rx="65.7" ry="37.97"/><path class="cls-4" d="M201.44,117.55c0,11.33-7.46,22.67-22.43,31.31-29.93,17.28-78.45,17.28-108.38,0-13.46-7.77-20.85-17.71-22.2-27.87,0,11.32,7.47,22.65,22.43,31.29,29.93,17.28,78.45,17.28,108.38,0C195.72,142.76,203.12,130,201.44,117.55Z"/></g><g id="_7" data-name="7"><path class="cls-6" d="M121.4,142.21h0l4.81-5-7-11.33-9.17-31.7c-1.54-5.33-6.58-10.59-11.25-11.75L66,74.34,53.92,67.2l-4.74,4.94a2.5,2.5,0,0,0-.32.33l-.08.08h0c-1.12,1.36-1.42,3.59-.62,6.36l12,41.58c1.54,5.33,6.58,10.59,11.25,11.75l45,11.11C118.63,143.89,120.35,143.42,121.4,142.21Z"/><path class="cls-7" d="M121.49,138.08,76.5,127c-4.67-1.15-9.71-6.41-11.25-11.75l-12-41.58c-1.55-5.34,1-8.73,5.66-7.57l45,11.11c4.67,1.15,9.71,6.41,11.25,11.75l12,41.58C128.7,135.85,126.16,139.24,121.49,138.08Z"/></g><path class="cls-5" d="M107.35,102a16,16,0,0,1,1.47,7.8,8.17,8.17,0,0,1-2.36,5.31,8.31,8.31,0,0,1-3.74,1.94,24.45,24.45,0,0,1-5.64.58l-10,0L74,86.52l10.3,0a28.52,28.52,0,0,1,6.25.6,20.38,20.38,0,0,1,5,1.79,25.07,25.07,0,0,1,6.86,5.28A26.59,26.59,0,0,1,107.35,102Zm-7.6,0a18.71,18.71,0,0,0-3.23-5.25,13.59,13.59,0,0,0-4.67-3.41,11.32,11.32,0,0,0-2.64-.81,22.8,22.8,0,0,0-3.63-.2H83.73l8.2,19.49h1.85a19,19,0,0,0,3.72-.28,5,5,0,0,0,2-1,4.35,4.35,0,0,0,1.53-3.37A13.22,13.22,0,0,0,99.75,102Z"/><path class="cls-8" d="M104.89,102a16,16,0,0,1,1.47,7.8,8.07,8.07,0,0,1-2.35,5.3,8.31,8.31,0,0,1-3.75,2,24.51,24.51,0,0,1-5.64.57l-10,.05L71.51,86.55l10.29-.06a27.83,27.83,0,0,1,6.25.61,20.05,20.05,0,0,1,5,1.79,25,25,0,0,1,6.85,5.28A26.26,26.26,0,0,1,104.89,102Zm-7.59,0a18.77,18.77,0,0,0-3.23-5.26,13.66,13.66,0,0,0-4.67-3.4,11.94,11.94,0,0,0-2.65-.82,22.64,22.64,0,0,0-3.63-.2H81.27l8.21,19.49h1.85a18.27,18.27,0,0,0,3.72-.28,5.08,5.08,0,0,0,2-1,4.36,4.36,0,0,0,1.52-3.37A13,13,0,0,0,97.3,102Z"/><path class="cls-9" d="M188.55,51.36h0l-4.63-3.63-9,6.85L149,65c-4.37,1.75-8.39,6.45-9,10.49l-4.06,28.38-5,10.81,4.57,3.59a2.34,2.34,0,0,0,.31.24l.07.06h0c1.24.83,3.15.9,5.42,0l34.09-13.67c4.37-1.75,8.39-6.45,9-10.49l5.58-38.92A4,4,0,0,0,188.55,51.36Z"/><path class="cls-7" d="M185.06,51.63l-5.58,38.92c-.58,4-4.59,8.74-9,10.5l-34.08,13.66c-4.38,1.76-7.45-.1-6.88-4.14l5.58-38.92c.58-4,4.59-8.74,9-10.49l34.08-13.67C182.56,45.74,185.64,47.59,185.06,51.63Z"/><path class="cls-10" d="M173.29,79a15,15,0,0,1-2.46,6.47,17.25,17.25,0,0,1-4.68,4.79,16.81,16.81,0,0,1-4.31,2.08,30.71,30.71,0,0,1-5.33,1.14l-9,1.18,3.33-25,9.26-1.22a24.31,24.31,0,0,1,5.32-.2,10.15,10.15,0,0,1,3.61,1,7.72,7.72,0,0,1,3.59,3.72A10.94,10.94,0,0,1,173.29,79Zm-6.8.84a7.86,7.86,0,0,0-.36-4.1,4.29,4.29,0,0,0-2.54-2.37,6.57,6.57,0,0,0-2-.39,21.3,21.3,0,0,0-3.15.25l-1.67.21-2.08,15.67,1.66-.22a22.08,22.08,0,0,0,3.48-.67,9.59,9.59,0,0,0,2.24-1,9.19,9.19,0,0,0,3-3A11.24,11.24,0,0,0,166.49,79.85Z"/><path class="cls-11" d="M170.76,79.37a15.11,15.11,0,0,1-2.46,6.48,17.21,17.21,0,0,1-4.68,4.78,16.84,16.84,0,0,1-4.31,2.09A30.69,30.69,0,0,1,154,93.85L145,95l3.33-25,9.26-1.22a23.56,23.56,0,0,1,5.31-.19,9.94,9.94,0,0,1,3.62,1,7.7,7.7,0,0,1,3.59,3.71A10.94,10.94,0,0,1,170.76,79.37Zm-6.8.85a7.89,7.89,0,0,0-.36-4.11,4.25,4.25,0,0,0-2.54-2.36,6,6,0,0,0-2-.39,19.69,19.69,0,0,0-3.15.24l-1.67.22-2.08,15.66,1.66-.22a22.32,22.32,0,0,0,3.48-.66,10.06,10.06,0,0,0,2.24-1,9.25,9.25,0,0,0,3-3A11.24,11.24,0,0,0,164,80.22Z"/><path class="cls-7" d="M185.06,51.63l-5.58,38.92c-.58,4-4.59,8.74-9,10.5l-34.08,13.66c-4.38,1.76-7.45-.1-6.88-4.14l5.58-38.92c.58-4,4.59-8.74,9-10.49l34.08-13.67C182.56,45.74,185.64,47.59,185.06,51.63Z"/><path class="cls-5" d="M173.29,79a15,15,0,0,1-2.46,6.47,17.25,17.25,0,0,1-4.68,4.79,16.81,16.81,0,0,1-4.31,2.08,30.71,30.71,0,0,1-5.33,1.14l-9,1.18,3.33-25,9.26-1.22a24.31,24.31,0,0,1,5.32-.2,10.15,10.15,0,0,1,3.61,1,7.72,7.72,0,0,1,3.59,3.72A10.94,10.94,0,0,1,173.29,79Zm-6.8.84a7.86,7.86,0,0,0-.36-4.1,4.29,4.29,0,0,0-2.54-2.37,6.57,6.57,0,0,0-2-.39,21.3,21.3,0,0,0-3.15.25l-1.67.21-2.08,15.67,1.66-.22a22.08,22.08,0,0,0,3.48-.67,9.59,9.59,0,0,0,2.24-1,9.19,9.19,0,0,0,3-3A11.24,11.24,0,0,0,166.49,79.85Z"/><path class="cls-8" d="M170.76,79.37a15.11,15.11,0,0,1-2.46,6.48,17.21,17.21,0,0,1-4.68,4.78,16.84,16.84,0,0,1-4.31,2.09A30.69,30.69,0,0,1,154,93.85L145,95l3.33-25,9.26-1.22a23.56,23.56,0,0,1,5.31-.19,9.94,9.94,0,0,1,3.62,1,7.7,7.7,0,0,1,3.59,3.71A10.94,10.94,0,0,1,170.76,79.37Zm-6.8.85a7.89,7.89,0,0,0-.36-4.11,4.25,4.25,0,0,0-2.54-2.36,6,6,0,0,0-2-.39,19.69,19.69,0,0,0-3.15.24l-1.67.22-2.08,15.66,1.66-.22a22.32,22.32,0,0,0,3.48-.66,10.06,10.06,0,0,0,2.24-1,9.25,9.25,0,0,0,3-3A11.24,11.24,0,0,0,164,80.22Z"/><path class="cls-12" d="M184,113.6h0l-2.3-2.35-8,4.37L153,122.24c-3.48,1.11-7.46,4.11-8.89,6.7l-10,18.2-6.22,6.93,2.27,2.31a.75.75,0,0,0,.15.16l0,0h0c.65.54,2,.58,3.76,0l27.16-8.68c3.49-1.11,7.47-4.11,8.9-6.7l13.75-25C184.57,115,184.55,114.11,184,113.6Z"/><path class="cls-7" d="M181.48,113.77l-13.75,25c-1.42,2.59-5.41,5.59-8.89,6.7l-27.16,8.68c-3.49,1.11-5.15-.09-3.73-2.68l13.75-25c1.43-2.59,5.41-5.59,8.9-6.7l27.16-8.68C181.24,110,182.91,111.18,181.48,113.77Z"/><path class="cls-5" d="M166.36,131.3a15.42,15.42,0,0,1-3.36,4.15,20.15,20.15,0,0,1-4.46,3.06,19.12,19.12,0,0,1-3.52,1.32,27.71,27.71,0,0,1-4,.71l-6.56.74,8.66-16,6.75-.75a19,19,0,0,1,3.74-.12,5.73,5.73,0,0,1,2.27.62,3,3,0,0,1,1.56,2.4A7,7,0,0,1,166.36,131.3Zm-4.94.52a5.19,5.19,0,0,0,.79-2.63,1.72,1.72,0,0,0-1.16-1.53,3.94,3.94,0,0,0-1.28-.25,17.44,17.44,0,0,0-2.26.14l-1.21.14-5.42,10.05,1.21-.14a20.81,20.81,0,0,0,2.59-.42,10.91,10.91,0,0,0,1.82-.66,10.77,10.77,0,0,0,2.86-2A11.12,11.12,0,0,0,161.42,131.82Z"/><path class="cls-8" d="M164.51,131.53a15.39,15.39,0,0,1-3.36,4.14,20.39,20.39,0,0,1-4.46,3.06,18.47,18.47,0,0,1-3.52,1.33,29.15,29.15,0,0,1-4,.71l-6.56.74,8.66-16,6.75-.76a18.19,18.19,0,0,1,3.74-.11,5.56,5.56,0,0,1,2.27.62,3,3,0,0,1,1.56,2.39A7.07,7.07,0,0,1,164.51,131.53Zm-4.94.52a5.22,5.22,0,0,0,.79-2.63,1.71,1.71,0,0,0-1.16-1.53,3.94,3.94,0,0,0-1.28-.26,20.11,20.11,0,0,0-2.26.15l-1.21.14L149,138l1.21-.13a20.81,20.81,0,0,0,2.59-.42,10.16,10.16,0,0,0,1.82-.67,10.75,10.75,0,0,0,2.86-1.94A11.31,11.31,0,0,0,159.57,132.05Z"/><path class="cls-13" d="M198.94,178.66V150.94h8.53a12.91,12.91,0,0,1,6.54,1.64,11.46,11.46,0,0,1,4.51,4.69,14.52,14.52,0,0,1,1.61,6.9v1.28a14.48,14.48,0,0,1-1.59,6.87,11.39,11.39,0,0,1-4.48,4.67,13.08,13.08,0,0,1-6.53,1.67Zm5.71-23.1v18.51h2.76a6.21,6.21,0,0,0,5.13-2.19,9.86,9.86,0,0,0,1.8-6.26v-1.47c0-2.82-.58-5-1.75-6.41a6.19,6.19,0,0,0-5.12-2.18Z"/><path class="cls-13" d="M241,166.65H230v7.42h12.87v4.59H224.29V150.94h18.54v4.62H230v6.61h11Z"/><path class="cls-13" d="M260.6,171.39a3,3,0,0,0-1.14-2.49,15.45,15.45,0,0,0-4.11-1.83,29.22,29.22,0,0,1-4.71-1.89q-4.72-2.55-4.72-6.88a6.64,6.64,0,0,1,1.27-4,8.19,8.19,0,0,1,3.63-2.76,13.71,13.71,0,0,1,5.32-1,12.45,12.45,0,0,1,5.3,1.08,8.45,8.45,0,0,1,3.61,3,8,8,0,0,1,1.28,4.45h-5.71a3.74,3.74,0,0,0-1.2-3,5,5,0,0,0-3.37-1,5.29,5.29,0,0,0-3.26.88,2.8,2.8,0,0,0-1.16,2.33,2.69,2.69,0,0,0,1.36,2.27,15.38,15.38,0,0,0,4,1.71,17.38,17.38,0,0,1,7.11,3.64,7.26,7.26,0,0,1,2.22,5.41,6.7,6.7,0,0,1-2.72,5.65,12,12,0,0,1-7.33,2,14.19,14.19,0,0,1-5.83-1.17,9.22,9.22,0,0,1-4-3.21,8.22,8.22,0,0,1-1.38-4.72h5.73q0,4.59,5.49,4.59a5.34,5.34,0,0,0,3.18-.83A2.69,2.69,0,0,0,260.6,171.39Z"/><path class="cls-13" d="M276.27,178.66h-5.71V150.94h5.71Z"/><path class="cls-13" d="M303.5,175.16a9.87,9.87,0,0,1-4.36,2.86,18.23,18.23,0,0,1-6.24,1,12.37,12.37,0,0,1-6.32-1.57,10.52,10.52,0,0,1-4.18-4.56,16,16,0,0,1-1.52-7V164a17.08,17.08,0,0,1,1.4-7.19,10.35,10.35,0,0,1,4-4.65,11.66,11.66,0,0,1,6.18-1.61q4.94,0,7.71,2.36a10,10,0,0,1,3.29,6.84h-5.56a5.49,5.49,0,0,0-1.68-3.48,5.37,5.37,0,0,0-3.59-1.11,5.08,5.08,0,0,0-4.44,2.19c-1,1.46-1.53,3.63-1.54,6.52v1.77q0,4.35,1.66,6.59a5.67,5.67,0,0,0,4.85,2.22c2.15,0,3.68-.45,4.59-1.37V168.3h-5.2v-4.21H303.5Z"/><path class="cls-13" d="M330.68,178.66H325l-11.13-18.24v18.24h-5.71V150.94h5.71L325,169.22V150.94h5.7Z"/><path class="cls-13" d="M352.35,166.65h-11v7.42h12.87v4.59H335.67V150.94h18.55v4.62H341.38v6.61h11Z"/><path class="cls-13" d="M367.87,168.51h-4.55v10.15h-5.71V150.94h10.3q4.9,0,7.58,2.18a7.6,7.6,0,0,1,2.66,6.19,8.54,8.54,0,0,1-1.23,4.74,8.28,8.28,0,0,1-3.72,3l6,11.34v.26h-6.13Zm-4.55-4.63h4.61a4.72,4.72,0,0,0,3.33-1.09,3.91,3.91,0,0,0,1.18-3,4.18,4.18,0,0,0-1.11-3.08,4.65,4.65,0,0,0-3.42-1.13h-4.59Z"/><path class="cls-13" d="M388.21,174.07h12.13v4.59H382.49V150.94h5.72Z"/><path class="cls-13" d="M407.86,163.43l5.77-12.49h6.24l-9.1,17.67v10H405v-10l-9.1-17.67h6.27Z"/><path class="cls-13" d="M198.94,216.66V188.94h8.53a12.91,12.91,0,0,1,6.54,1.64,11.46,11.46,0,0,1,4.51,4.69,14.52,14.52,0,0,1,1.61,6.9v1.28a14.48,14.48,0,0,1-1.59,6.87,11.39,11.39,0,0,1-4.48,4.67,13.08,13.08,0,0,1-6.53,1.67Zm5.71-23.1v18.51h2.76a6.21,6.21,0,0,0,5.13-2.19,9.86,9.86,0,0,0,1.8-6.26v-1.47c0-2.82-.58-5-1.75-6.41a6.19,6.19,0,0,0-5.12-2.18Z"/><path class="cls-13" d="M239.94,211h-10l-1.9,5.71h-6.08l10.33-27.72h5.29l10.38,27.72h-6.08Zm-8.48-4.63h6.94l-3.49-10.38Z"/><path class="cls-13" d="M269.11,193.56h-8.49v23.1h-5.71v-23.1h-8.38v-4.62h22.58Z"/><path class="cls-13" d="M285.74,211h-10l-1.9,5.71h-6.08l10.32-27.72h5.3l10.38,27.72h-6.08Zm-8.48-4.63h6.93l-3.48-10.38Z"/><path class="cls-13" d="M306,216.66V188.94h8.53a12.91,12.91,0,0,1,6.54,1.64,11.5,11.5,0,0,1,4.5,4.69,14.41,14.41,0,0,1,1.62,6.9v1.28a14.48,14.48,0,0,1-1.59,6.87,11.39,11.39,0,0,1-4.48,4.67,13.08,13.08,0,0,1-6.53,1.67Zm5.71-23.1v18.51h2.76a6.2,6.2,0,0,0,5.12-2.19,9.87,9.87,0,0,0,1.81-6.26v-1.47c0-2.82-.58-5-1.75-6.41a6.19,6.19,0,0,0-5.12-2.18Z"/><path class="cls-13" d="M354.16,203.43a16.67,16.67,0,0,1-1.45,7.18,10.89,10.89,0,0,1-4.14,4.76,12.28,12.28,0,0,1-12.33,0,11.08,11.08,0,0,1-4.19-4.74,16.19,16.19,0,0,1-1.5-7.07v-1.37A16.73,16.73,0,0,1,332,195a11,11,0,0,1,4.17-4.78,12.2,12.2,0,0,1,12.32,0,10.91,10.91,0,0,1,4.17,4.78,16.52,16.52,0,0,1,1.48,7.19Zm-5.79-1.26q0-4.36-1.56-6.63a5.52,5.52,0,0,0-8.89,0c-1.05,1.5-1.57,3.68-1.59,6.57v1.35A11.84,11.84,0,0,0,337.9,210a5.07,5.07,0,0,0,4.49,2.34,5,5,0,0,0,4.42-2.26c1-1.5,1.55-3.7,1.56-6.58Z"/><path class="cls-13" d="M380.86,216.66h-5.72L364,198.42v18.24h-5.71V188.94H364l11.14,18.28V188.94h5.7Z"/><path class="cls-13" d="M401.5,211h-10l-1.9,5.71H383.5l10.33-27.72h5.29l10.38,27.72h-6.08ZM393,206.32H400l-3.49-10.38Z"/><path class="cls-13" d="M430.67,193.56h-8.49v23.1h-5.71v-23.1h-8.38v-4.62h22.58Z"/><path class="cls-13" d="M440,216.66h-5.71V188.94H440Z"/><path class="cls-13" d="M468.07,203.43a16.82,16.82,0,0,1-1.44,7.18,11,11,0,0,1-4.15,4.76A11.49,11.49,0,0,1,456.3,217a11.61,11.61,0,0,1-6.15-1.65,11.08,11.08,0,0,1-4.19-4.74,16.19,16.19,0,0,1-1.5-7.07v-1.37a16.58,16.58,0,0,1,1.48-7.21,10.91,10.91,0,0,1,4.17-4.78,12.2,12.2,0,0,1,12.32,0A11,11,0,0,1,466.6,195a16.67,16.67,0,0,1,1.47,7.19Zm-5.79-1.26q0-4.36-1.56-6.63a5.52,5.52,0,0,0-8.89,0c-1,1.5-1.57,3.68-1.58,6.57v1.35a11.85,11.85,0,0,0,1.56,6.59,5.07,5.07,0,0,0,4.49,2.34,5,5,0,0,0,4.42-2.26c1-1.5,1.55-3.7,1.56-6.58Z"/><path class="cls-13" d="M494.77,216.66h-5.71l-11.12-18.24v18.24h-5.71V188.94h5.71l11.14,18.28V188.94h5.69Z"/></svg>